/* XPM */
static char *result[] = {
/* columns rows colors chars-per-pixel */
"32 64 45 1 ",
"  c black",
". c #040404",
"X c #111111",
"o c #1D1D1D",
"O c #2A2A2A",
"+ c gray17",
"@ c #494949",
"# c #4C4C4C",
"$ c gray30",
"% c gray34",
"& c #5A5A5A",
"* c gray36",
"= c #5D5D5D",
"- c gray38",
"; c #6D6D6D",
": c #727272",
"> c #747474",
", c #7C7C7C",
"< c gray50",
"1 c gray53",
"2 c #898989",
"3 c #8B8B8B",
"4 c gray55",
"5 c #8D8D8D",
"6 c gray59",
"7 c gray63",
"8 c gray78",
"9 c gray82",
"0 c #D8D8D8",
"q c gainsboro",
"w c #DDDDDD",
"e c gray90",
"r c gray91",
"t c #E9E9E9",
"y c #EAEAEA",
"u c gray92",
"i c #ECECEC",
"p c gray93",
"a c #EFEFEF",
"s c gray94",
"d c gray95",
"f c #FDFDFD",
"g c #FEFEFE",
"h c #FEFEFF",
"j c white",
/* pixels */
"jjjjjjjjjjjjjjjjjjjjjjjjjjjjjjjj",
"jjjjjjjjjjjjjjjjjjjjjjjjjjjjjjjj",
"jjjjjjjjjjjjjjjjjjjjjjjjjjjjjjjj",
"jjjjjjjjjjjjjjjjjjjjjjjjjjjjjjjj",
"jjjjjjjjjjjjjjjjjjjjjjjjjjjjjjjj",
"jjjjjjjjjjjjjjjjjjjjjjjjjjjjjjjj",
"jjjjjjjjjjjjjjjjjjjjjjjjjjjjjjjj",
"jjjjjjjjjjjjjjjjjjjjjjjjjjjjjjjj",
"jjjjjjjjjjjjjjhhjjjjjjjjjjjjjjjj",
"jjjjjjjjjjjjjjhjjjjjjjjjjjjjjjjj",
"jjjjjjjjjjjjjjjjjjjjjjjjjjjjjjjj",
"jjjjjjjjjjjjjjjjjjjjjjjjjjjjjjjj",
"jjjjjjjjjjjjjjjjjjjjjjjjjw<%rjjj",
"jjjjjjjjjjjjjjjjjjjjjjp5=.  6jjj",
"jjjjjjjjjjjjjjjjjjjjs5O  .=3ajjj",
"jjjjjjjjjjjjjjjjjjjs&    ,jjjjjj",
"jjjjjjjjjjjjjjjjjjj5  &; $sjjjjj",
"jjjjjjjjjjjjjjjjjjpO &s5  &sjjjj",
"jjjjjjjjjjjjjjjjjj5 Opjs&  5jjjj",
"jjjjjjjjjjjjjjjjjpO 5jjjs$ <jjjj",
"jjjjjjjjjjjjjjjjj5 Opjjjj< <jjjj",
"jjjjjgjjjjjjjjjjj< <jjjjj< <jjjj",
"jjjjjjjjjjjjjjjjpO 5jjjjj< <jjjj",
"jjjjjgjjjjjjjjjj5 Opjjjjj< <jjjj",
"jjjjjgjjjjjjjjjj< <jjjjjj< <jjjj",
"jjjjjjjjjjjjjjjiO 5jjjjjj< <jjjj",
"jjjjjjjjjjjjjjj- +pjjjjjj< <jjjj",
"jjjjjjjjjjjjjjw..qjjjjjjj< <jjjj",
"jjjjjjjjjjjjjj2 =jjjjjjjj< <jjjj",
"jjjjjjjjjjjjjj< <jjjjjjjj< <jjjj",
"jjjjjjjjjjjjjj; 1jjjjjjjj< <jjjj",
"jjjjjjjjjjjjjgo 8jjjjjjjj< <jjjj",
"jjjjjjjjjjjjj8 ogjjjjjjjj< <jjjj",
"jjjjfgjjjjjjp+ >jjjjjjjjj< <jjjj",
"jjjjjjjjjjjj> +pjjjjjjjjj< <jjjj",
"jjjjggjjjjjgo 8jjjjjjjjjpO 5jjjj",
"jjjjggjjjjj8 ogjjjjjggjj5 Opjjjj",
"jjjjjjjjjjj- :jjjjjjjjjj< <jjjjj",
"jjjjjjjjjjw..wjjjjjjjjjs$ <jjjjj",
"jjjjjjjjjj2 =jjjjjjjjjs&  5jjjjj",
"jjjjjjjjjj< <jjjjjjjjj5  &sjjjjj",
"jjjjjjjjjj< <jjjjjjjjj< $sjjjjjj",
"jjjjjjjjjj* 2jjjjjjjjj< <jjjjjjj",
"jjjjjjjjjw..wjjjjjjjjj< <jjjjjjj",
"jjjjjjjjj- -jjjjjjjgjtO 5jjjjjjj",
"jjjjjjjjw..qjjjjjjjjt+ +pjjjjjjj",
"jjjjjjjj2 =jggjjjjji+ +yjjjjjjjj",
"jjjjjjjj< <jjjjjjjj- +yjjjjjjjjj",
"jjjjjjjpO 5jjjjjjjq..qjjjjjjjjjj",
"jjjjjjj5 Opjjjjjjt+ -jjjjjjjjjjj",
"jjjjjjj< <jjjjjje+ +ijjjjjjjjjjj",
"jjjjjjj< <jjjjj7X +yjjjjjjjjjjjj",
"jjjjjjj< <jjjs#  #ujjjjjjjjjjjjj",
"jjjjjjj< <jjj- X7jjjjjjjjjjjjjjj",
"jjjjjjj< <jj9..0jjjjjjjjjjjjjjjj",
"jjjjjjj< <a-. -jjjjjjjjjjjjjjjjj",
"jjjjjjj4 O@ .-djjjjjjjjjjjjjjjjj",
"jjjjjjji+   2jjjjjjjjjjjjjjjjjjj",
"jjjjjjjjp5<5sjjjjjjjjjjjjjjjjjjj",
"jjjjjjjjjjjjjjjjjjjjjjjjjjjjjjjj",
"jjjjjjjjjjjjjjjjjjjjjjjjjjjjjjjj",
"jjjjjjjjjjjjjjjjjjjjjjjjjjjjjjjj",
"jjjjjjjjjjjjjjjjjjjjjjjjjjjjjjjj",
"jjjjjjjjjjjjjjjjjjjjjjjjjjjjjjjj"
};
