/* XPM */
static char *result[] = {
/* columns rows colors chars-per-pixel */
"32 64 18 1 ",
"  c blue",
". c #0404FF",
"X c #2A2AFF",
"o c #4D4DFF",
"O c #5D5DFF",
"+ c #7474FF",
"@ c #7F7FFF",
"# c #8585FF",
"$ c #8787FF",
"% c #8989FF",
"& c #8D8DFF",
"* c #9A9AFF",
"= c #DDDDFF",
"- c #E1E1FF",
"; c #EBEBFF",
": c #EDEDFF",
"> c #F0F0FF",
", c white",
/* pixels */
",,,,,,,,,,,,,,,,,,,,,,,,,,,,,,,,",
",,,,,,,,,,,,,,,,,,,,,,,,,,,,,,,,",
",,,,,,,,,,,,,,,,,,,,,,,,,,,,,,,,",
",,,,,,,,,,,,,,,,,,,,,,,,,,,,,,,,",
",,,,,,,,,,,,,,,,,,,,,,,,,,,,,,,,",
",,,,,,,,,,,,,,,,,,,,,,,,,,,,,,,,",
",,,,,,,,,,,,,,,,,,,,,,,,,,,,,,,,",
",,,,,,,,,,,,,,,,,,,,,,,,,,,,,,,,",
",,,,,,,,,,,,,,-+;,,,,,,,,,,,,,,,",
",,,,,,,,,,,,,,# $,,,,,,,,,,,,,,,",
",,,,,,,,,,,,,>o @,,,,,,,,,,,,,,,",
",,,,,,,,,,,,,&  &,,,,,,,,,,,,,,,",
",,,,,,,,,,,,,@ o>,,,,,,,,,,,,,,,",
",,,,,,,,,,,,:X &,,,,,,,,,,,,,,,,",
",,,,,,,,,,,,& X:,,,,,,,,,,,,,,,,",
",,,,,,,,,,,,@ @,,,,,,,,,,,,,,,,,",
",,,,,,,,,,,,@ @,,,,,,,,,,,,,,,,,",
",,,,,,,,,,,,@ @,,,,,,,,,,,,,,,,,",
",,,,,,,,,,,,O %,,,,,,,,,,,,,,,,,",
",,,,,,,,,,,=..=,,,,,,,,,,,,,,,,,",
",,,,,,,,,,,% O,,,,,,,,,,,,,,,,,,",
",,,,,,,,,,,@ @,,,,,,,,,,,,,,,,,,",
",,,,,,,,,,,@ @,,,,,,,,,,,,,,,,,,",
",,,,,,,,,,,@ @,,,,,,,,,,,,,,,,,,",
",,,,,,,,,,,@ @,,,,,,,,,,,,,,,,,,",
",,,,,,,,,,,@ @,,,,,,,,,,,,,,,,,,",
",,,,,,,,,,,@ @,,,,,,,,,,,,,,,,,,",
",,,,,,,,,,,@ @,,,,,,,,,,,,,,,,,,",
",,,,,,,,,,,@ @,,,,,,,,,,,,,,,,,,",
",,,,,,,,,,,@ @,,,,,,,,,,,,,,,,,,",
",,,,,,,,,,,@ @,,,,,,,,,,,,,,,,,,",
",,,,,,,,,,,@ @,,,,,,,,,,,,,,,,,,",
",,,,,,,,,,,@ @,,,,,,,,,,,,,,,,,,",
",,,,,,,,,,,@ @,,,,,,,,,,,,,,,,,,",
",,,,,,,,,,,@ @,,,,,,,,,,,,,,,,,,",
",,,,,,,,,,,@ @,,,,,,,,,,,,,,,,,,",
",,,,,,,,,,,@ @,,,,,,,,,,,,,,,,,,",
",,,,,,,,,,,@ @,,,,,,,,,,,,,,,,,,",
",,,,,,,,,,,@ @,,,,,,,,,,,,,,,,,,",
",,,,,,,,,,,@ @,,,,,,,,,,,,,,,,,,",
",,,,,,,,,,,@ @,,,,,,,,,,,,,,,,,,",
",,,,,,,,,,,@ @,,,,,,,,,,,,,,,,,,",
",,,,,,,,,,,@ @,,,,,,,,,,,,,,,,,,",
",,,,,,,,,,,@ @,,,,,,,,,,,,,,,,,,",
",,,,,,,,,,,@ @,,,,,,,,,,,,,,,,,,",
",,,,,,,,,,,@ @,,,,,,,,,,,,,,,,,,",
",,,,,,,,,,,@ @,,,,,,,,,,,,,,,,,,",
",,,,,,,,,,,@ @,,,,,,,,,,,,,,,,,,",
",,,,,,,,,,,@ @,,,,,,,,,,,,,,,,,,",
",,,,,,,,,,,@ @,,,,,,,,,,,,,,,,,,",
",,,,,,,,,,,& &,,,,,,,,,,,,,,,,,,",
",,,,,,,,,,,>*>,,,,,,,,,,,,,,,,,,",
",,,,,,,,,,,,,,,,,,,,,,,,,,,,,,,,",
",,,,,,,,,,,,,,,,,,,,,,,,,,,,,,,,",
",,,,,,,,,,,,,,,,,,,,,,,,,,,,,,,,",
",,,,,,,,,,,,,,,,,,,,,,,,,,,,,,,,",
",,,,,,,,,,,,,,,,,,,,,,,,,,,,,,,,",
",,,,,,,,,,,,,,,,,,,,,,,,,,,,,,,,",
",,,,,,,,,,,,,,,,,,,,,,,,,,,,,,,,",
",,,,,,,,,,,,,,,,,,,,,,,,,,,,,,,,",
",,,,,,,,,,,,,,,,,,,,,,,,,,,,,,,,",
",,,,,,,,,,,,,,,,,,,,,,,,,,,,,,,,",
",,,,,,,,,,,,,,,,,,,,,,,,,,,,,,,,",
",,,,,,,,,,,,,,,,,,,,,,,,,,,,,,,,"
};
