/* XPM */
static char *result[] = {
/* columns rows colors chars-per-pixel */
"32 64 31 1 ",
"  c #FB0207",
". c #FB050A",
"X c #FB262A",
"o c #FB2B2F",
"O c #FB2C30",
"+ c #FB3B3F",
"@ c #FB4044",
"# c #FC4E51",
"$ c #FC5B5E",
"% c #FC5E61",
"& c #FC6265",
"* c #FC6366",
"= c #FC7E80",
"- c #FC8082",
"; c #FD898C",
": c #FD8C8F",
"> c #FC8C90",
", c #FD8D90",
"< c #FD9294",
"1 c #FD9A9C",
"2 c #FEDCDC",
"3 c #FEDDDD",
"4 c #FEEAEA",
"5 c #FEECEC",
"6 c #FEEDED",
"7 c #E1E1FF",
"8 c #FEF0F0",
"9 c #F7F7FF",
"0 c #FDFDFF",
"q c #FEFEFF",
"w c white",
/* pixels */
"wwwwwwwwwwwwwwwwwwwwwwwwwwwwwwww",
"wwwwwwwwwwwwwwwwwwwwwwwwwwwwwwww",
"wwwwwwwwwwwwwwwwwwwwwwwwwwwwwwww",
"wwwwwwwwwwwwwwwwwwwwwwwwwwwwwwww",
"wwwwwwwwwwwwwwwwwwwwwwwwwwwwwwww",
"wwwwwwwwwwwwwwwwwwwwwwwwwwwwwwww",
"wwwwwwwwwwwwwwwwwwwwwwwwwwwwwwww",
"wwwwwwwwwwwwwwwwwwwwwwwwwwwwwwww",
"wwwwwwwwwwwwww79wwwwwwwwwwwwwwww",
"wwwwwwwwwwwwwwqwwwwwwwwwwwwwwwww",
"wwwwwwwwwwwwwwwwwwwwwwwwwwwwwwww",
"wwwwwwwwwwwwwwwwwwwwwwwwwwwwwwww",
"wwwwwwwwwwwwwwwwwwwwwwwwwwwwwwww",
"wwwwwwwwwwwwwwwwwwwwwwwwwwwwwwww",
"wwwwwwww8;--,8wwwwwwwwwwwwwwwwww",
"wwwwwwww<    #-,8wwwwwwwwwwwwwww",
"wwwwwwww3X*#    ,wwwwwwwwwwwwwww",
"wwwwwwwwwww8,-@ #8wwwwwwwwwwwwww",
"wwwwwwwwwwwwwq>  ,wwwwwwwwwwwwww",
"wwwwwwwwwwwwwq8# -wwwwwwwwwwwwww",
"wwwwwwwwwwwww0w- -wwwwwwwwwwwwww",
"wwwwwwwwwwwwwqw- -wwwwwwwwwwwwww",
"wwwwwwwwwwwwwww- -wwwwwwwwwwwwww",
"wwwwwwwwwwwwwww- -wwwwwwwwwwwwww",
"wwwwwwwwwwwwwww- -wwwwwwwwwwwwww",
"wwwwwwwwwwwwwww- -wwwwwwwwwwwwww",
"wwwwwwwwwwwwwww- -wwwwwwwwwwwwww",
"wwwwwwwwwwwwww6o ,wwwwwwwwwwwwww",
"wwwwwwwwwwwwww, o6wwwwwwwwwwwwww",
"wwwwwwwwwwwwww- -wwwwwwwwwwwwwww",
"wwwwwwwwwwwwww% ;wwwwwwwwwwwwwww",
"wwwwwwwwwwwww2..3wwwwwwwwwwwwwww",
"wwwwwwwwwwww6O &wwwwwwwwwwwwwwww",
"wwwwwwwwwwww, o5wwwwwwwwwwwwwwww",
"wwwwwwwwwwww- -wwwwwwwwwwwwwwwww",
"wwwwwwwwwww8# -wwwwwwwwwwwwwwwww",
"wwwwwwwwwww,  ,wwwwwwwwwwwwwwwww",
"wwwwwwwwww8# #8wwwwwwwwwwwwwwwww",
"wwwwwwwwww,  ,wwwwwwwwwwwwwwwwww",
"wwwwwwwww8# +=-,8wwwwwwwwwwwwwww",
"wwwwwwwww:      #-,8wwww6,,8wwww",
"wwwwwwww6o   o#    #----o  1wwww",
"wwwwwww8$   O48,-#       o,8wwww",
"wwwwww8$  o,6wwww8,-----,6wwwwww",
"wwwwww1  O4wwwwwwwwwwwwwwwwwwwww",
"wwwwww8,,6wwwwwwwwwwwwwwwwwwwwww",
"wwwwwwwwwwwwwwwwwwwwwwwwwwwwwwww",
"wwwwwwwwwwwwwwwwwwwwwwwwwwwwwwww",
"wwwwwwwwwwwwwwwwwwwwwwwwwwwwwwww",
"wwwwwwwwwwwwwwwwwwwwwwwwwwwwwwww",
"wwwwwwwwwwwwwwwwwwwwwwwwwwwwwwww",
"wwwwwwwwwwwwwwwwwwwwwwwwwwwwwwww",
"wwwwwwwwwwwwwwwwwwwwwwwwwwwwwwww",
"wwwwwwwwwwwwwwwwwwwwwwwwwwwwwwww",
"wwwwwwwwwwwwwwwwwwwwwwwwwwwwwwww",
"wwwwwwwwwwwwwwwwwwwwwwwwwwwwwwww",
"wwwwwwwwwwwwwwwwwwwwwwwwwwwwwwww",
"wwwwwwwwwwwwwwwwwwwwwwwwwwwwwwww",
"wwwwwwwwwwwwwwwwwwwwwwwwwwwwwwww",
"wwwwwwwwwwwwwwwwwwwwwwwwwwwwwwww",
"wwwwwwwwwwwwwwwwwwwwwwwwwwwwwwww",
"wwwwwwwwwwwwwwwwwwwwwwwwwwwwwwww",
"wwwwwwwwwwwwwwwwwwwwwwwwwwwwwwww",
"wwwwwwwwwwwwwwwwwwwwwwwwwwwwwwww"
};
