/* XPM */
static char *result[] = {
/* columns rows colors chars-per-pixel */
"32 64 27 1 ",
"  c #FD8008",
". c #FD810B",
"X c #FD9430",
"o c #FD9531",
"O c #FD9F45",
"+ c #FDA652",
"@ c #FDA857",
"# c #FDAB5D",
"$ c #FDAC5F",
"% c #FDAE62",
"& c #FDB065",
"* c #FDB46E",
"= c #FEBF83",
"- c #FEC48C",
"; c #FEC58E",
": c #FEC58F",
"> c #FEC690",
", c #FECB9B",
"< c #FECC9D",
"1 c #FEEEDE",
"2 c #FCF2E9",
"3 c #FEF4E9",
"4 c #FEF6ED",
"5 c #FEF7EF",
"6 c #FEF7F0",
"7 c #FEFEFF",
"8 c white",
/* pixels */
"88888888888888888888888888888888",
"88888888888888888888888888888888",
"88888888888888888888888888888888",
"88888888888888888888888888888888",
"88888888888888888888888888888888",
"88888888888888888888888888888888",
"88888888888888888888888888888888",
"88888888886>=====>68888888888888",
"888888885;+       >8888888888888",
"88888888,   +===O =8888888888888",
"888888884@#>6888: o4888888888888",
"88888888888888884X >888888888888",
"88888888888888888= =888888888888",
"88888888888888888= =888888888888",
"88888888888888884X >888888888888",
"8888888888888888> X4888888888888",
"8888888888888888= =8888888888888",
"8888888888888874X >8888888888888",
"888888888888877> X48888888888888",
"888888888888873X >88888888888888",
"88888888888882o o488888888888888",
"88888888886>=X  *>68888888888888",
"8888888886$       >8888888888888",
"888888888<  X===O =8888888888888",
"8888888886>>4888= =8888888888888",
"8888888888888888> o4888888888888",
"88888888888888884X >888888888888",
"88888888888888888- %888888888888",
"888888888888888881..188888888888",
"888888888888888888& &88888888888",
"8888888888888888881..18888888888",
"8888888888888888888% -8888888888",
"8888888888888888888> o4888888888",
"88888888888888888884X >888888888",
"88888888888888888888= =888888888",
"88888888888888888888= =888888888",
"88888888888888888888= =888888888",
"88888888888888888888= =888888888",
"88888888888888888888= =888888888",
"88888888888888888888= =888888888",
"88888886<68888888888= =888888888",
"8888888> >8888888884X >888888888",
"8888888= +688888884$ X4888888888",
"8888888>  +=>4886>X  >8888888888",
"88888886$    X==+  X>68888888888",
"888888886>==X     $4888888888888",
"8888888888884>===>68888888888888",
"88888888888888888888888888888888",
"88888888888888888888888888888888",
"88888888888888888888888888888888",
"88888888888888888888888888888888",
"88888888888888888888888888888888",
"88888888888888888888888888888888",
"88888888888888888888888888888888",
"88888888888888888888888888888888",
"88888888888888888888888888888888",
"88888888888888888888888888888888",
"88888888888888888888888888888888",
"88888888888888888888888888888888",
"88888888888888888888888888888888",
"88888888888888888888888888888888",
"88888888888888888888888888888888",
"88888888888888888888888888888888",
"88888888888888888888888888888888"
};
