/* XPM */
static char *result[] = {
/* columns rows colors chars-per-pixel */
"32 64 43 1 ",
"  c #FFFF66",
". c #FFFF68",
"X c #FFFF77",
"o c #FFFF7F",
"O c #FFFF87",
"+ c #FFFF88",
"@ c #FFFF8A",
"# c #FFFF8C",
"$ c #FFFF8E",
"% c #FFFF99",
"& c #FFFF9A",
"* c #FFFF9D",
"= c #FFFFA0",
"- c #FFFFA7",
"; c #FFFFA9",
": c #FFFFAB",
"> c #FFFFAE",
", c #FFFFB2",
"< c #FFFFB5",
"1 c #FFFFB6",
"2 c #FFFFB7",
"3 c #FFFFB8",
"4 c #FFFFBA",
"5 c #FFFFBE",
"6 c #FFFFC2",
"7 c #FFFFCA",
"8 c #FFFFD3",
"9 c #FFFFD4",
"0 c #FFFFDD",
"q c #FFFFEA",
"w c #E1E1FF",
"e c #FFFFF1",
"r c #FEFEF2",
"t c #FFFFF2",
"y c #FFFFF3",
"u c #FFFFF4",
"i c #FFFFF5",
"p c #FFFFF6",
"a c #FFFFF7",
"s c #F7F7FF",
"d c #FFFFFE",
"f c #FEFEFF",
"g c white",
/* pixels */
"gggggggggggggggggggggggggggggggg",
"gggggggggggggggggggggggggggggggg",
"gggggggggggggggggggggggggggggggg",
"gggggggggggggggggggggggggggggggg",
"gggggggggggggggggggggggggggggggg",
"gggggggggggggggggggggggggggggggg",
"gggggggggggggggggggggggggggggggg",
"gggggggggggggggggggggggggggggggg",
"ggggggggggggggwsgggggggggggggggg",
"ggggggggggggggfggggggggggggggggg",
"gggggggggggggggggggggggggggggggg",
"gggggggggggggggggggggggggggggggg",
"gggggggggggggggggggggggggggggggg",
"ggggggggggggggggp5pggggggggggggg",
"gggggggggggggggp% 1ggggggggggggg",
"ggggggggggggggg3  4ggggggggggggg",
"gggggggggggggi=. &pggggggggggggg",
"ggggggggggggg3 .=pgggggggggggggg",
"ggggggggggggto 3gggggp:7gggggggg",
"gggggggggggeo ouggggg3 @gggggggg",
"ggggggggggqo otgggggg, ,gggggggg",
"ggggggggy=. orgggggguo 4gggggggg",
"gggggggto .=yggggggg4 ougggggggg",
"ggggggeo oqggggggggg, ,ggggggggg",
"gggggto otgggggggggg, ,ggggggggg",
"ggggyo otggggggggggg, ,ggggggggg",
"gggg= otgggggggggggg, ,ggggggggg",
"gggq..qggggggggggggg- 2ggggggggg",
"ggeo =gggggggggggggdX 0ggggggggg",
"geo oyggggggggggggg0 Xdggggggggg",
"to otgggggggggggggg> ;gggggggggg",
"o otgggggggggggggggO 9gggggggggg",
" otggggggggggggggga..agggggggggg",
".qgggggggggggggggg8 Ogggggggggq3",
"=ggggggggggggggggg< :gggu4,,,*. ",
"ygggggggggggggggq3# #,,,o     .*",
"gggggggggggd02,*.        o,,,3qg",
"gggggggd02-X    .*+ $,,,4ugggggg",
"ggu4,,-X    X-,3qgO 9ggggggggggg",
",,o     X-20dgggga..aggggggggggg",
"   o,,20dgggggggg8 Ogggggggggggg",
",,4uggggggggggggg< :gggggggggggg",
"ggggggggggggggggg, ,gggggggggggg",
"ggggggggggggggggg, ,gggggggggggg",
"ggggggggggggggggg- 2gggggggggggg",
"ggggggggggggggggdX 0gggggggggggg",
"gggggggggggggggg0 Xdgggggggggggg",
"gggggggggggggggg2 -ggggggggggggg",
"gggggggggggggggg, ,ggggggggggggg",
"gggggggggggggggg, ,ggggggggggggg",
"gggggggggggggggg, ,ggggggggggggg",
"gggggggggggggggg, ,ggggggggggggg",
"gggggggggggggggg, ,ggggggggggggg",
"gggggggggggggggg, ,ggggggggggggg",
"gggggggggggggggg, ,ggggggggggggg",
"gggggggggggggggg, ,ggggggggggggg",
"gggggggggggggggg4 4ggggggggggggg",
"ggggggggggggggggp6pggggggggggggg",
"gggggggggggggggggggggggggggggggg",
"gggggggggggggggggggggggggggggggg",
"gggggggggggggggggggggggggggggggg",
"gggggggggggggggggggggggggggggggg",
"gggggggggggggggggggggggggggggggg",
"gggggggggggggggggggggggggggggggg"
};
