/* XPM */
static char *result[] = {
/* columns rows colors chars-per-pixel */
"32 64 110 2 ",
"   c #0003FF",
".  c #0104FF",
"X  c #0204FF",
"o  c #0205FF",
"O  c #0306FF",
"+  c #0406FF",
"@  c #0508FF",
"#  c #0609FF",
"$  c #080BFF",
"%  c #090CFF",
"&  c #0A0DFF",
"*  c #0B0EFF",
"=  c #0D0FFF",
"-  c #0E10FF",
";  c #0F11FF",
":  c #1012FF",
">  c #1113FF",
",  c #1214FF",
"<  c #1215FF",
"1  c #1618FF",
"2  c #191BFF",
"3  c #1A1CFF",
"4  c #1B1EFF",
"5  c #1E21FF",
"6  c #1F21FF",
"7  c #2023FF",
"8  c #2124FF",
"9  c #2527FF",
"0  c #2729FF",
"q  c #2A2CFF",
"w  c #3234FF",
"e  c #3334FF",
"r  c #3436FF",
"t  c #3537FF",
"y  c #3638FF",
"u  c #3D3FFF",
"i  c #4647FF",
"p  c #4648FF",
"a  c #4A4BFF",
"s  c #4C4DFF",
"d  c #4D4EFF",
"f  c #4D4FFF",
"g  c #4F50FF",
"h  c #5355FF",
"j  c #5D5EFF",
"k  c #5E60FF",
"l  c #5F61FF",
"z  c #6466FF",
"x  c #7071FF",
"c  c #7172FF",
"v  c #7576FF",
"b  c #797AFF",
"n  c #7A7BFF",
"m  c #7C7EFF",
"M  c #7D7EFF",
"N  c #8384FF",
"B  c #8889FF",
"V  c #8A8BFF",
"C  c #8B8CFF",
"Z  c #9192FF",
"A  c #9FA0FF",
"S  c #A7A8FF",
"D  c #AAABFF",
"F  c #ACADFF",
"G  c #AEAFFF",
"H  c #AFAFFF",
"J  c #B1B2FF",
"K  c #B4B4FF",
"L  c #B5B5FF",
"P  c #B5B6FF",
"I  c #B7B7FF",
"U  c #B8B9FF",
"Y  c #BCBCFF",
"T  c #BFC0FF",
"R  c #C1C1FF",
"E  c #C2C2FF",
"W  c #C4C5FF",
"Q  c #C5C5FF",
"!  c #C7C7FF",
"~  c #CACBFF",
"^  c #CCCCFF",
"/  c #CDCDFF",
"(  c #CFD0FF",
")  c #D0D0FF",
"_  c #D2D3FF",
"`  c #D3D3FF",
"'  c #D4D5FF",
"]  c #D5D5FF",
"[  c #DBDCFF",
"{  c #DCDCFF",
"}  c #DDDDFF",
"|  c #E1E1FF",
" . c #E2E2FF",
".. c #E4E4FF",
"X. c #E8E8FF",
"o. c #EAEAFF",
"O. c #EEEEFF",
"+. c #F1F1FF",
"@. c #F3F3FF",
"#. c #F4F4FF",
"$. c #F5F5FF",
"%. c #F6F6FF",
"&. c #F7F7FF",
"*. c GhostWhite",
"=. c #F9F9FF",
"-. c #FAFAFF",
";. c #FBFBFF",
":. c #FDFDFF",
">. c #FEFEFF",
",. c white",
/* pixels */
",.,.,.,.,.,.,.,.,.,.,.,.,.,.,.,.,.,.,.,.,.,.,.,.,.,.,.,.,.,.,.,.",
",.,.,.,.,.,.,.,.,.,.,.,.,.,.,.,.,.,.,.,.,.,.,.,.,.,.,.,.,.,.,.,.",
",.,.,.,.,.,.,.,.,.,.,.,.,.,.,.,.,.,.,.,.,.,.,.,.,.,.,.,.,.,.,.,.",
",.,.,.,.,.,.,.,.,.,.,.,.,.,.,.,.,.,.,.,.,.,.,.,.,.,.,.,.,.,.,.,.",
",.,.,.,.,.,.,.,.,.,.,.,.,.,.,.,.,.,.,.,.,.,.,.,.,.,.,.,.,.,.,.,.",
",.,.,.,.,.,.,.,.,.,.,.,.,.,.,.,.,.,.,.,.,.,.,.,.,.,.,.,.,.,.,.,.",
",.,.,.,.,.,.,.,.,.,.,.,.,.,.,.,.,.,.,.,.,.,.,.,.,.,.,.,.,.,.,.,.",
",.,.,.,.,.,.,.,.,.,.,.,.,.,.,.,.,.,.,.,.,.,.,.,.,.,.,.,.,.,.,.,.",
",.,.,.,.,.,.,.,.,.,.,.,.,.,.| &.,.,.,.,.,.,.,.,.,.,.,.,.,.,.,.,.",
",.,.,.,.,.,.,.,.,.,.,.,.,.,.>.,.,.,.,.,.,.,.,.,.,.,.,.,.,.,.,.,.",
",.,.,.,.,.,.,.,.,.,.,.,.,.,.,.,.,.,.,.,.,.,.,.,.,.,.,.,.,.,.,.,.",
",.,.,.,.,.,.,.,.,.,.,.,.,.,.,.,.,.,.,.,.,.,.,.,.,.,.,.,.,.,.,.,.",
",.,.,.,.,.,.,.,.,.,.,.,.,.,.,.,.,.,.,.,.,.,.,.,.,.,.,.,.,.,.,.,.",
",.,.,.,.,.,.,.,.,.,.,.,.,.,.,.,.,.,.,.,.,.,.,.,.,.,.,.,.,.,.,.,.",
",.,.,.,.,.,.,.,.,.,.,.,.,.,.,.,.,.,.,.,.,.,.,.,.,.,.,.,.,.,.,.,.",
",.,.,.,.,.,.,.,.,.,.,.,.,.,.,.,.,.,.,.,.,.,.,.,.,.,.,.,.,.,.,.,.",
",.,.,.,.,.,.,.,.,.,.,.,.,.,.,.,.,.,.,.,.,.,.,.,.,.,.,.,.,.,.,.,.",
",.,.,.,.,.,.,.,.,.,.,.,.,.,.>.,.,.,.,.,.,.,.,.,.,.,.,.,.,.,.,.,.",
",.,.,.,.,.,.,.,.,.,.,.,.,.>.>.,.,.,.,.,.,.,.,.,.,.,.,.,.,.,.,.,.",
",.,.,.,.,.,.,.,.,.,.,.,.,.>.,.,.,.,.,.,.,.,.,.,.,.,.,.,.,.,.,.,.",
",.,.,.,.,.,.,.,.,.,.,.,.,.:.,.,.,.,.,.,.,.,.,.,.,.,.,.,.,.,.,.,.",
",.,.,.,.,.,.,.,.,.,.,.,.,.>.,.,.,.,.,.,.,.,.,.,.,.,.,.,.,.,.,.,.",
",.,.,.,.,.,.,.,.,.,.,.,.,.S V C C C C C C C V P ,.,.,.,.,.,.,.,.",
",.,.,.,.,.,.,.,.,.,.,.,.>.q                   f ,.,.,.,.,.,.,.,.",
",.,.,.,.,.,.,.,.,.,.,.,.+.9   8 t r r r r r w m ,.,.,.,.,.,.,.,.",
",.,.,.,.,.,.,.,.,.,.,.,. .2   G %.$.$.$.$.$.#.-.,.,.,.,.,.,.,.,.",
",.,.,.,.,.,.,.,.,.,.,.,.` -   ( ,.,.,.,.,.,.,.,.,.,.,.,.,.,.,.,.",
",.,.,.,.,.,.,.,.,.,.,.,.W X * [ ,.,.,.,.,.,.,.,.,.,.,.,.,.,.,.,.",
",.,.,.,.,.,.,.,.,.,.,.,.K   5 O.>.} Q ) O.,.,.,.,.,.,.,.,.,.,.,.",
",.,.,.,.,.,.,.,.,.,.,.,.A   r L i ; @ & 6 v X.,.,.,.,.,.,.,.,.,.",
",.,.,.,.,.,.,.,.,.,.,.,.B   1 =   . #       w | ,.,.,.,.,.,.,.,.",
",.,.,.,.,.,.,.,.,.,.,.,.x     : M ! { F u     s =.,.,.,.,.,.,.,.",
",.,.,.,.,.,.,.,.,.,.,.,.j o 4 ! ,.,.,.,.@.p   . R ,.,.,.,.,.,.,.",
",.,.,.,.,.,.,.,.,.,.,.,.] U ' ,.,.,.,.,.,.Q $   b ,.,.,.,.,.,.,.",
",.,.,.,.,.,.,.,.,.,.,.,.,.,.,.,.,.,.,.,.,.&.7   k ,.,.,.,.,.,.,.",
",.,.,.,.,.,.,.,.,.,.,.;._ ~ X.,.,.,.,.,.,.*.7   l ,.,.,.,.,.,.,.",
",.,.,.,.,.,.,.,.,.,.,.O.0 # z ,.,.,.,.,.,.^ &   n ,.,.,.,.,.,.,.",
",.,.,.,.,.,.,.,.,.,.,.,.a   > Y ,.,.,.,.-.h   o E ,.,.,.,.,.,.,.",
",.,.,.,.,.,.,.,.,.,.,.,.I +   , Z ..o.E d     g -.,.,.,.,.,.,.,.",
",.,.,.,.,.,.,.,.,.,.,.,.,.N .     = < .     e  .,.,.,.,.,.,.,.,.",
",.,.,.,.,.,.,.,.,.,.,.,.,.,.D y %     O 3 c o.,.,.,.,.,.,.,.,.,.",
",.,.,.,.,.,.,.,.,.,.,.,.,.,.,.=./ J H T X.,.,.,.,.,.,.,.,.,.,.,.",
",.,.,.,.,.,.,.,.,.,.,.,.,.,.,.,.,.,.,.,.,.,.,.,.,.,.,.,.,.,.,.,.",
",.,.,.,.,.,.,.,.,.,.,.,.,.,.,.,.,.,.,.,.,.,.,.,.,.,.,.,.,.,.,.,.",
",.,.,.,.,.,.,.,.,.,.,.,.,.,.,.,.,.,.,.,.,.,.,.,.,.,.,.,.,.,.,.,.",
",.,.,.,.,.,.,.,.,.,.,.,.,.,.,.,.,.,.,.,.,.,.,.,.,.,.,.,.,.,.,.,.",
",.,.,.,.,.,.,.,.,.,.,.,.,.,.,.,.,.,.,.,.,.,.,.,.,.,.,.,.,.,.,.,.",
",.,.,.,.,.,.,.,.,.,.,.,.,.,.,.,.,.,.,.,.,.,.,.,.,.,.,.,.,.,.,.,.",
",.,.,.,.,.,.,.,.,.,.,.,.,.,.,.,.,.,.,.,.,.,.,.,.,.,.,.,.,.,.,.,.",
",.,.,.,.,.,.,.,.,.,.,.,.,.,.,.,.,.,.,.,.,.,.,.,.,.,.,.,.,.,.,.,.",
",.,.,.,.,.,.,.,.,.,.,.,.,.,.,.,.,.,.,.,.,.,.,.,.,.,.,.,.,.,.,.,.",
",.,.,.,.,.,.,.,.,.,.,.,.,.,.,.,.,.,.,.,.,.,.,.,.,.,.,.,.,.,.,.,.",
",.,.,.,.,.,.,.,.,.,.,.,.,.,.,.,.,.,.,.,.,.,.,.,.,.,.,.,.,.,.,.,.",
",.,.,.,.,.,.,.,.,.,.,.,.,.,.,.,.,.,.,.,.,.,.,.,.,.,.,.,.,.,.,.,.",
",.,.,.,.,.,.,.,.,.,.,.,.,.,.,.,.,.,.,.,.,.,.,.,.,.,.,.,.,.,.,.,.",
",.,.,.,.,.,.,.,.,.,.,.,.,.,.,.,.,.,.,.,.,.,.,.,.,.,.,.,.,.,.,.,.",
",.,.,.,.,.,.,.,.,.,.,.,.,.,.,.,.,.,.,.,.,.,.,.,.,.,.,.,.,.,.,.,.",
",.,.,.,.,.,.,.,.,.,.,.,.,.,.,.,.,.,.,.,.,.,.,.,.,.,.,.,.,.,.,.,.",
",.,.,.,.,.,.,.,.,.,.,.,.,.,.,.,.,.,.,.,.,.,.,.,.,.,.,.,.,.,.,.,.",
",.,.,.,.,.,.,.,.,.,.,.,.,.,.,.,.,.,.,.,.,.,.,.,.,.,.,.,.,.,.,.,.",
",.,.,.,.,.,.,.,.,.,.,.,.,.,.,.,.,.,.,.,.,.,.,.,.,.,.,.,.,.,.,.,.",
",.,.,.,.,.,.,.,.,.,.,.,.,.,.,.,.,.,.,.,.,.,.,.,.,.,.,.,.,.,.,.,.",
",.,.,.,.,.,.,.,.,.,.,.,.,.,.,.,.,.,.,.,.,.,.,.,.,.,.,.,.,.,.,.,.",
",.,.,.,.,.,.,.,.,.,.,.,.,.,.,.,.,.,.,.,.,.,.,.,.,.,.,.,.,.,.,.,."
};
