/* XPM */
static char *result[] = {
/* columns rows colors chars-per-pixel */
"32 64 21 1 ",
"  c navy",
". c #2A2A94",
"X c #2B2B95",
"o c #2C2C95",
"O c #4A4AA4",
"+ c #4D4DA6",
"@ c #5A5AAC",
"# c #6161B0",
"$ c #7979BC",
"% c #7A7ABC",
"& c #7F7FBF",
"* c #8C8CC5",
"= c #8D8DC6",
"- c #EDEDF6",
"; c #EFEFF7",
": c #E1E1FF",
"> c #F0F0F7",
", c #F7F7FF",
"< c #FDFDFF",
"1 c #FEFEFF",
"2 c white",
/* pixels */
"22222222222222222222222222222222",
"22222222222222222222222222222222",
"22222222222222222222222222222222",
"22222222222222222222222222222222",
"22222222222222222222222222222222",
"22222222222222222222222222222222",
"22222222222222222222222222222222",
"22222222222222222222222222222222",
"2222222>*o$222:,2222222222222222",
"2222222=  #222122222222222222222",
"2222222& O;222222222222222222222",
"2222222& &2222222222222222222222",
"222222>+ &2222222222222222222222",
"222222=  =2222222222222222222222",
"222222& +>2222222222222222222222",
"222222& &22222222222222222222222",
"222222& &22222222222222222222222",
"222222& &22222122222222222222222",
"222222& &22221122222222222222222",
"222222& &22221222222222222222222",
"222222& &2222<222222222222222222",
"22222>+ &22221222222222222222222",
"22222=  =22222222222222222222222",
"22222& +>22222222222222222222222",
"22222& &222222222222222222222222",
"22222& &222222222222222222222222",
"22222& &222222222222222222222222",
"22222& &222222222222222222222222",
"22222& &222222222222222222222222",
"2222>+ &222222222222222222222222",
"2222=  =222222222222222222222222",
"2222& +>222222222222222222222222",
"2222& &222>=&&&&&&&&=>2222222222",
"2222& &22>@          =2222222222",
"2222& +>>@  +&&&&&&+ X-222222222",
"2222=  @@  @>222222-. @>22222222",
"2222>@    @>22222222=  =22222222",
"22222>@  %>222222222>+ &22222222",
"222222-. =22222222222& &22222222",
"2222222& +>222222222>+ &22222222",
"2222222=  @>2222222>@  =22222222",
"2222222>@  @>22222-@  @>22222222",
"22222222>@  =222>=.  @>222222222",
"222222222>@ .==&+  .=>2222222222",
"2222222222-X      @-222222222222",
"22222222222-@  +&=>2222222222222",
"222222222222>==>2222222222222222",
"22222222222222222222222222222222",
"22222222222222222222222222222222",
"22222222222222222222222222222222",
"22222222222222222222222222222222",
"22222222222222222222222222222222",
"22222222222222222222222222222222",
"22222222222222222222222222222222",
"22222222222222222222222222222222",
"22222222222222222222222222222222",
"22222222222222222222222222222222",
"22222222222222222222222222222222",
"22222222222222222222222222222222",
"22222222222222222222222222222222",
"22222222222222222222222222222222",
"22222222222222222222222222222222",
"22222222222222222222222222222222",
"22222222222222222222222222222222"
};
