/* XPM */
static char *result[] = {
/* columns rows colors chars-per-pixel */
"32 64 30 1 ",
"  c #7F007F",
". c #800080",
"X c #810481",
"o c #891489",
"O c #942A94",
"+ c #952B95",
"@ c #A346A3",
"# c #A347A3",
"$ c #A54CA5",
"% c #A64DA6",
"& c #AC5AAC",
"* c #AE5DAE",
"= c #AF5FAF",
"- c #BF7FBF",
"; c #C58CC5",
": c #C68DC6",
"> c #C68EC6",
", c #C994C9",
"< c #CB97CB",
"1 c #CC9ACC",
"2 c #EEDDEE",
"3 c #F6EDF6",
"4 c #F6EEF6",
"5 c #F6EFF6",
"6 c #F7F0F7",
"7 c #F9F3F9",
"8 c #FDFDFD",
"9 c #FEFEFE",
"0 c #FEFEFF",
"q c white",
/* pixels */
"qqqqqqqqqqqqqqqqqqqqqqqqqqqqqqqq",
"qqqqqqqqqqqqqqqqqqqqqqqqqqqqqqqq",
"qqqqqqqqqqqqqqqqqqqqqqqqqqqqqqqq",
"qqqqqqqqqqqqqqqqqqqqqqqqqqqqqqqq",
"qqqqqqqqqqqqqqqqqqqqqqqqqqqqqqqq",
"qqqqqqqqqqqqqqqqqqqqqqqqqqqqqqqq",
"qqqqqqqqqqqqqqqqqqqqqqqqqqqqqqqq",
"qqqqqqqqqqqqqqqqqqqqqqqqqqqqqqqq",
"qqqqqqqqqqqqqq00qqqqqqqqqqqqqqqq",
"qqqqqqqqqqqqqq0qqqqqqqqqqqqqqqqq",
"qqqq,=4qqqqqqqqqqqqqqqqqqqqqqqqq",
"qqq3o >qqqqqqqqqqqqqqqqqqqqqqqqq",
"qqq; .#-------:6qqqqqqqqqqqqqqqq",
"qqq- ..........%:6qqqqqqqqqqqqqq",
"qqq- @-------%...%-:6qqqqqqqqqqq",
"qqq-.-qqqqqqq6:%....&6qqqqqqqqqq",
"qqq-.-qqqqqqqqq6:-%..:qqqqqqqqqq",
"qqq-.-qqqqqqqqqqqq6%.-qqqqqqqqqq",
"qqq-.$7qqqqqqqqqqqq-.-qqqqqqqqqq",
"qqq-..<qqqqqqqqqqqq-.-qqqqqqqqqq",
"qqq-.X2qqqqqqqqqqqq-.-qqqqqqqqqq",
"qqq-.*qqqqqqqqqqqqq-.-qqqqqqqqqq",
"qqq-.-qqqqqqqqqqqqq-.-qqqqqqqqqq",
"qqq:.;qqqqqqqqqqqqq-.-qqqqqqqqqq",
"qqq615qqqqqqqqqqqqq-.-qqqqqqqqqq",
"qqqqqqqqqqqqqqqqqqq-.-qqqqqqqqqq",
"qqqqqqqqqqqqqqqqqqq-.-qqqqqqqqqq",
"qqqqqqqqqqqqqqqqqqq-.-qqqqqqqqqq",
"qqqqqqqqqqqqqqqqqqq:.+3qqqqqqqqq",
"qqqqqqqqqqqqqqqqqqq3O.:qqqqqqqqq",
"qqqqqqqqqqqqqqqqqqqq-.-qqqqqqqqq",
"qqqqqqqqqqqqqqqqqqqq-.-qqqqqqqqq",
"qqqqqqqqqqqqqqqqqqqq-.-qqqqqqqqq",
"qqqq89qqqqqqqqqqqqqq-.-qqqqqqqqq",
"qqqqqqqqqqqqqqqqqqqq-.-qqqqqqqqq",
"qqqq99qqqqqqqqqqqqqq-.-qqqqqqqqq",
"qqqq99qqqqqqqqqqqqqq-.-qqqqqqqqq",
"qqqqqqqqqqqqqqqqqqqq-.-qqqqqqqqq",
"qqqqqqqqqqqqqqqqqqqq-.-qqqqqqqqq",
"qqqqqqqqqqqqqqqqqqqq-.-qqqqqqqqq",
"qqqqqqqqqqqqqqqqqqqq-.-qqqqqqqqq",
"qqqqqqqqqqqqqqqqqqqq-.-qqqqqqqqq",
"qqqqqqqqqqqqqqqqqqqq-.-qqqqqqqqq",
"qqqqqqqqqqqqqqqqqqqq-.-qqqqqqqqq",
"qqqqqqqqqqqqqqqqqqq9-.-qqqqqqqqq",
"qqqqqqqqqqq9qqqqqqqq-.-qqqqqqqqq",
"qqqqqqqqqqqq99qqqqqq-.-qqqqqqqqq",
"qqqqqqqqqqqqqqqqqqqq:.:qqqqqqqqq",
"qqqqqqqqqqqqqqqqqqqq616qqqqqqqqq",
"qqqqqqqqqqqqqqqqqqqqqqqqqqqqqqqq",
"qqqqqqqqqqqqqqqqqqqqqqqqqqqqqqqq",
"qqqqqqqqqqqqqqqqqqqqqqqqqqqqqqqq",
"qqqqqqqqqqqqqqqqqqqqqqqqqqqqqqqq",
"qqqqqqqqqqqqqqqqqqqqqqqqqqqqqqqq",
"qqqqqqqqqqqqqqqqqqqqqqqqqqqqqqqq",
"qqqqqqqqqqqqqqqqqqqqqqqqqqqqqqqq",
"qqqqqqqqqqqqqqqqqqqqqqqqqqqqqqqq",
"qqqqqqqqqqqqqqqqqqqqqqqqqqqqqqqq",
"qqqqqqqqqqqqqqqqqqqqqqqqqqqqqqqq",
"qqqqqqqqqqqqqqqqqqqqqqqqqqqqqqqq",
"qqqqqqqqqqqqqqqqqqqqqqqqqqqqqqqq",
"qqqqqqqqqqqqqqqqqqqqqqqqqqqqqqqq",
"qqqqqqqqqqqqqqqqqqqqqqqqqqqqqqqq",
"qqqqqqqqqqqqqqqqqqqqqqqqqqqqqqqq"
};
