/* XPM */
static char *result[] = {
/* columns rows colors chars-per-pixel */
"32 64 153 2 ",
"   c #810140",
".  c #820141",
"X  c #830141",
"o  c #800241",
"O  c #810341",
"+  c #830142",
"@  c #820242",
"#  c #830242",
"$  c #820342",
"%  c #840142",
"&  c #850142",
"*  c #850143",
"=  c #860143",
"-  c #870143",
";  c #820543",
":  c #840443",
">  c #870144",
",  c #820644",
"<  c #830644",
"1  c #830744",
"2  c #840544",
"3  c #880144",
"4  c #850845",
"5  c #840A47",
"6  c #850A47",
"7  c #850B47",
"8  c #870C49",
"9  c #870D49",
"0  c #870E4A",
"q  c #88114C",
"w  c #89114C",
"e  c #89134D",
"r  c #8A134E",
"t  c #89144E",
"y  c #8A154E",
"u  c #8A154F",
"i  c #8B154F",
"p  c #8B1750",
"a  c #8B1751",
"s  c #8C1B53",
"d  c #8E1C54",
"f  c #8E1D55",
"g  c #8F2158",
"h  c #902258",
"j  c #91245A",
"k  c #93275D",
"l  c #952C60",
"z  c #962E62",
"x  c #9C3C6C",
"c  c #9F3F6F",
"v  c #A04171",
"b  c #A14372",
"n  c #A14472",
"m  c #A24573",
"M  c #A24674",
"N  c #A54877",
"B  c #A74F7A",
"V  c #A8507C",
"C  c #A9507D",
"Z  c #A9537E",
"A  c #A9547E",
"S  c #A9557E",
"D  c #AA5680",
"F  c #AD5B84",
"G  c #AE5D85",
"H  c #AF5F86",
"J  c #B16188",
"K  c #B06288",
"L  c #B16389",
"P  c #B2658C",
"I  c #B3678D",
"U  c #B3688D",
"Y  c #B56C8F",
"T  c #B56B90",
"R  c #B66C91",
"E  c #B97497",
"W  c #BB7799",
"Q  c #BB789A",
"!  c #BC799A",
"~  c #BC799B",
"^  c #BC7A9B",
"/  c #BE7C9D",
"(  c #BF7F9F",
")  c #C080A0",
"_  c #C183A2",
"`  c #C185A3",
"'  c #C284A3",
"]  c #C48AA7",
"[  c #C58CA8",
"{  c #C68CA8",
"}  c #C68EAA",
"|  c #C790AC",
" . c #C994AF",
".. c #CA96B0",
"X. c #CE9CB4",
"o. c #D1A2B9",
"O. c #D3A7BD",
"+. c #D5ABC0",
"@. c #D6ADC2",
"#. c #D7AFC3",
"$. c #DAB6C8",
"%. c #DCB8CA",
"&. c #DDBCCD",
"*. c #DEBDCE",
"=. c #DFBFCF",
"-. c #DFC0CF",
";. c #E0C0D0",
":. c #E2C5D3",
">. c #E2C7D5",
",. c #E3C7D5",
"<. c #E5CCD8",
"1. c #E6CCD9",
"2. c #E7CEDA",
"3. c #E6CFDB",
"4. c #E7D0DC",
"5. c #EAD3DE",
"6. c #E9D4DE",
"7. c #EBD6E0",
"8. c #EBD8E1",
"9. c #EBD8E2",
"0. c #EEDDE6",
"q. c #EEDEE6",
"w. c #EFE1E8",
"e. c #F0E0E8",
"r. c #F0E2E9",
"t. c #F1E4EA",
"y. c #F3E7ED",
"u. c #F3E8ED",
"i. c #F3E8EE",
"p. c #F4EAEF",
"a. c #F5EBF0",
"s. c #F6EDF2",
"d. c #F7EEF2",
"f. c #F8F1F4",
"g. c #F8F2F5",
"h. c #F9F2F5",
"j. c #F9F3F6",
"k. c #F9F4F6",
"l. c #F9F4F7",
"z. c #FAF5F7",
"x. c #FBF7F9",
"c. c #F9F9F9",
"v. c gray98",
"b. c #FCF8FA",
"n. c #FCFAFB",
"m. c #FDFBFC",
"M. c gray99",
"N. c #FDFDFD",
"B. c #FEFDFD",
"V. c #FEFDFE",
"C. c #FEFEFE",
"Z. c #FEFEFF",
"A. c white",
/* pixels */
"A.A.A.A.A.A.A.A.A.A.A.A.A.A.A.A.A.A.A.A.A.A.A.A.A.A.A.A.A.A.A.A.",
"A.A.A.A.A.A.A.A.A.A.A.A.A.A.A.A.A.A.A.A.A.A.A.A.A.A.A.A.A.A.A.A.",
"A.A.A.A.A.A.A.A.A.A.A.A.A.A.A.A.A.A.A.A.A.A.A.A.A.A.A.A.A.A.A.A.",
"A.A.A.A.A.A.A.A.A.A.A.A.A.A.A.A.A.A.A.A.A.A.A.A.A.A.A.A.A.A.A.A.",
"A.A.A.A.A.A.A.A.A.A.A.A.A.A.A.A.A.A.A.A.A.A.A.A.A.A.A.A.A.A.A.A.",
"A.A.A.A.A.A.A.A.A.A.A.A.A.A.A.A.A.A.A.A.A.A.A.A.A.A.A.A.A.A.A.A.",
"A.A.A.A.A.A.A.A.A.A.A.A.A.A.A.A.A.A.A.A.A.A.A.A.A.A.A.A.A.A.A.A.",
"A.A.A.A.A.A.A.A.A.A.A.A.A.A.A.A.A.A.A.A.A.A.A.A.A.A.A.A.A.A.A.A.",
"A.A.A.A.A.A.A.A.A.A.A.A.A.A.A.Z.A.A.A.A.A.A.A.A.A.A.A.A.A.A.A.A.",
"A.A.A.A.A.A.A.A.A.A.A.A.A.A.A.A.A.A.A.A.A.A.A.A.A.A.A.A.A.A.A.A.",
"A.A.A.A.A.A.A.A.A.A.A.A.A.A.A.A.A.A.A.A.A.A.A.A.A.A.A.A.A.A.A.A.",
"A.A.A.A.A.A.A.A.A.A.A.A.A.A.A.A.A.A.A.A.A.A.A.A.A.A.A.A.A.A.A.A.",
"A.A.A.A.C.A.A.A.A.A.A.A.A.A.A.A.A.A.A.A.A.A.A.A.A.A.A.A.A.A.A.A.",
"A.A.A.A.C.A.A.C.A.A.A.A.A.A.A.A.C.A.A.A.A.A.A.A.A.A.A.A.A.A.A.A.",
"A.A.A.A.M.A.A.c.C.A.A.A.A.A.A.A.A.A.A.A.A.A.A.A.A.A.A.A.A.A.A.A.",
"A.A.A.A.v.A.A.A.A.A.A.A.A.A.A.A.A.A.A.A.A.C.A.A.A.A.A.A.A.A.A.A.",
"A.A.A.A.N.A.A.A.A.A.A.A.A.A.A.A.A.A.A.A.A.A.A.A.A.A.A.A.A.A.A.A.",
"A.A.A.A.C.A.A.A.A.A.A.A.A.A.A.A.A.A.A.A.A.A.A.A.A.A.A.A.A.A.A.A.",
"A.A.A.C.C.A.A.A.A.A.A.A.A.A.A.A.A.A.A.A.C.A.A.A.A.A.A.A.A.A.A.A.",
"A.A.A.C.A.A.A.A.A.A.A.A.A.A.A.A.A.A.A.A.C.A.A.A.A.A.A.A.A.A.A.A.",
"A.A.A.C.A.A.A.A.A.A.A.A.A.A.A.A.A.A.A.A.C.A.A.A.A.A.A.A.A.A.A.A.",
"A.A.A.C.A.A.A.A.A.A.A.A.A.A.A.A.A.A.A.A.C.A.A.A.A.A.A.A.A.A.A.A.",
"A.A.A.C.C.A.A.A.A.A.A.A.A.A.A.A.A.A.A.A.A.A.A.A.A.A.A.A.A.A.A.A.",
"A.A.A.C.C.A.A.A.A.A.A.A.A.A.A.A.A.A.A.A.A.A.A.A.A.A.A.A.A.A.A.A.",
"A.A.A.A.C.A.A.A.A.A.A.A.A.A.A.A.A.A.A.A.A.A.A.A.A.A.A.A.A.A.A.A.",
"A.A.A.A.A.A.A.A.A.A.A.A.A.A.A.A.A.A.A.A.A.A.A.A.A.A.A.A.A.A.A.A.",
"A.A.A.A.A.A.A.A.A.A.A.A.A.A.A.A.A.A.A.A.A.A.A.A.A.A.A.A.A.A.A.A.",
"A.A.A.A.A.A.A.A.A.A.A.A.A.A.A.A.A.A.A.A.A.A.A.A.A.A.A.A.A.A.A.A.",
"A.A.A.A.A.A.A.A.A.A.A.A.A.A.A.A.A.A.A.A.A.C.A.A.A.A.A.A.A.A.A.A.",
"A.A.A.A.A.A.A.A.A.A.A.A.A.A.A.-.~ V n A ) >.A.A.A.A.A.A.A.A.A.A.",
"A.A.A.A.A.A.A.A.A.A.A.A.A.u.D 2 - 3 3 3 - 4 I f.A.A.A.A.A.A.A.A.",
"A.A.A.A.A.A.A.A.A.A.A.A.k.M = % s S Y B t % = G m.A.A.A.A.A.A.A.",
"A.A.A.A.A.A.A.A.A.A.A.A.O.% + c 8.A.A.A.1.z % $ ;.A.A.A.A.A.A.A.",
"A.A.A.A.N.C.A.A.A.A.A.A.R = 0 6.A.A.A.A.A.&.< * _ A.A.A.A.A.A.A.",
"A.A.A.A.A.A.A.A.A.A.A.A.P = g d.A.A.A.A.A.0.q = / A.A.A.A.A.A.A.",
"A.A.A.A.C.C.A.A.A.A.A.A. .* 2 #.A.A.A.A.A...# . @.A.A.A.A.A.A.A.",
"A.A.A.A.C.C.A.A.A.A.A.A.i.l > i X.y.b.r.[ 8 > x j.A.A.A.A.A.A.A.",
"A.A.A.A.A.A.A.A.A.A.A.A.A.7.m .   u h e . ; H q.A.A.A.A.A.A.A.A.",
"A.A.A.A.A.A.A.A.A.A.A.A.A.g.{ 9 % - 3 - % t } x.A.A.A.A.A.A.A.A.",
"A.A.A.A.A.A.A.A.A.A.A.A.s.v * X l U W L j % = Z z.A.A.A.A.A.A.A.",
"A.A.A.A.A.A.A.A.A.A.A.V.J = $ ( h.A.A.A.a.T X & ^ A.A.A.A.A.A.A.",
"A.A.A.A.A.A.A.A.A.A.A.5.7 * F A.A.A.A.A.A.B.b * y p.A.A.A.A.A.A.",
"A.A.A.A.A.A.A.A.A.A.A.$.% X o.A.A.A.A.A.A.A.] = O 3.A.A.A.A.A.A.",
"A.A.A.A.A.A.A.A.A.A.A.*.@ % ' A.A.A.A.A.A.A.T & < 9.A.A.A.A.A.A.",
"A.A.A.A.A.A.A.A.A.A.A.e.p % f 4.A.A.A.A.A.=.w % k f.A.A.A.A.A.A.",
"A.A.A.A.A.A.A.A.A.A.A.A.! * X d ` <.w.,.Q r X % | A.A.A.A.A.A.A.",
"A.A.A.A.A.A.A.A.A.A.A.A.l.K X = & O 1 o * = : E n.A.A.A.A.A.A.A.",
"A.A.A.A.A.A.A.A.A.A.A.A.A.N.+.N u 6 , 5 a C %.A.A.A.A.A.A.A.A.A.",
"A.A.A.A.A.A.A.A.A.A.A.A.A.A.A.A.t.<.:.2.i.A.A.A.A.A.A.A.A.A.A.A.",
"A.A.A.A.A.A.A.A.A.A.A.A.A.A.A.A.A.A.A.A.A.A.A.A.A.A.A.A.A.A.A.A.",
"A.A.A.A.A.A.A.A.A.A.A.A.A.A.A.A.A.A.A.A.A.A.A.A.A.A.A.A.A.A.A.A.",
"A.A.A.A.A.A.A.A.A.A.A.A.A.A.A.A.A.A.A.A.A.A.A.A.A.A.A.A.A.A.A.A.",
"A.A.A.A.A.A.A.A.A.A.A.A.A.A.A.A.A.A.A.A.A.A.A.A.A.A.A.A.A.A.A.A.",
"A.A.A.A.A.A.A.A.A.A.A.A.A.A.A.A.A.A.A.A.A.A.A.A.A.A.A.A.A.A.A.A.",
"A.A.A.A.A.A.A.A.A.A.A.A.A.A.A.A.A.A.A.A.A.A.A.A.A.A.A.A.A.A.A.A.",
"A.A.A.A.A.A.A.A.A.A.A.A.A.A.A.A.A.A.A.A.A.A.A.A.A.A.A.A.A.A.A.A.",
"A.A.A.A.A.A.A.A.A.A.A.A.A.A.A.A.A.A.A.A.A.A.A.A.A.A.A.A.A.A.A.A.",
"A.A.A.A.A.A.A.A.A.A.A.A.A.A.A.A.A.A.A.A.A.A.A.A.A.A.A.A.A.A.A.A.",
"A.A.A.A.A.A.A.A.A.A.A.A.A.A.A.A.A.A.A.A.A.A.A.A.A.A.A.A.A.A.A.A.",
"A.A.A.A.A.A.A.A.A.A.A.A.A.A.A.A.A.A.A.A.A.A.A.A.A.A.A.A.A.A.A.A.",
"A.A.A.A.A.A.A.A.A.A.A.A.A.A.A.A.A.A.A.A.A.A.A.A.A.A.A.A.A.A.A.A.",
"A.A.A.A.A.A.A.A.A.A.A.A.A.A.A.A.A.A.A.A.A.A.A.A.A.A.A.A.A.A.A.A.",
"A.A.A.A.A.A.A.A.A.A.A.A.A.A.A.A.A.A.A.A.A.A.A.A.A.A.A.A.A.A.A.A.",
"A.A.A.A.A.A.A.A.A.A.A.A.A.A.A.A.A.A.A.A.A.A.A.A.A.A.A.A.A.A.A.A."
};
