/* XPM */
static char *result[] = {
/* columns rows colors chars-per-pixel */
"32 64 66 1 ",
"  c #FB0207",
". c #FB050A",
"X c #E6011A",
"o c #FB1116",
"O c #FB1217",
"+ c #FB191E",
"@ c #D6012B",
"# c #DC0E30",
"$ c #F01624",
"% c #FB1B20",
"& c #E11836",
"* c #FB2B2F",
"= c #FB2C30",
"- c #BD0143",
"; c #B70049",
": c #B7004A",
"> c #860078",
", c #FB4044",
"< c #FC4D50",
"1 c #FC4E51",
"2 c #F9555B",
"3 c #FC5B5E",
"4 c #DC4062",
"5 c #DA466C",
"6 c #FC5E61",
"7 c #E05373",
"8 c #FC6265",
"9 c #FC6D70",
"0 c #F46F7A",
"q c #FC7173",
"w c #8A158A",
"e c #B359A5",
"r c #BF7FBF",
"t c #FC7F81",
"y c #C376B2",
"u c #C278B4",
"i c #FC8082",
"p c #FD8285",
"a c #FD898C",
"s c #FD8D90",
"d c #FD9A9C",
"f c #FDA1A3",
"g c #C58CC5",
"h c #C68DC6",
"j c #CE91C0",
"k c #C994C9",
"l c #FED1D2",
"z c #FEDCDC",
"x c #FEDDDD",
"c c #FEE0E0",
"v c #FEE4E4",
"b c #FEE6E6",
"n c #F8E5EA",
"m c #FEE9E9",
"M c #FEEAEA",
"N c #FEEBEB",
"B c #FEECEC",
"V c #FEEDED",
"C c #FEEFEF",
"Z c #F6EDF6",
"A c #F7F0F7",
"S c #FEF0F0",
"D c #FEF2F2",
"F c #FDFDFD",
"G c #FEFEFE",
"H c white",
/* pixels */
"HHHHHHHHHHHHHHHHHHHHHHHHHHHHHHHH",
"HHHHHHHHHHHHHHHHHHHHHHHHHHHHHHHH",
"HHHHHHHHHHHHHHHHHHHHHHHHHHHHHHHH",
"HHHHHHHHHHHHHHHHHHHHHHHHHHHHHHHH",
"HHHHHHHHHHHHHHHHHHHVssSHHHHHSsii",
"HHHHHHHHHHHHHHSsiii*  1isSHHs   ",
"HHHHHHHHHSsisSd          1ii,   ",
"HHHHHHHHS3   1q+%               ",
"HHHHHHHS3  %    psiiiiiii* %  ,i",
"HHHHHHS3  3csitiCHHHHHHHHVdl% iH",
"HHHHke2  3SHHHHHHHHHHHHHHHHs  iH",
"HHHZw;  3SHHHHHHHHHHHHHHHHm*  aH",
"HHHg># 1SHHHHHHHHHHHHHHHHz=  .xH",
"HHHr;  sHHHHHHHHHHHHHHHD8.   6HH",
"HHHr- 1SHHHHHHHHHHHHHHH8 .89 iHH",
"HHHr- iHHHHHHHHHHHHHHHz..lHi iHH",
"HHHyX sHHHHHHHHHHHHHHm= 8HB* sHH",
"HHH5 $VHHHHHHHHHHHHHv= =BH8 =VHH",
"HHH4 &nHHHHHHHHHHHHfo =MHx..zHHH",
"HHH5  7HHHHHHHHHHx<  <NHHa 6HHHH",
"HHHu@ 0HHHHHHHHB8. OfHHHHi iHHHH",
"HHHr- iHHHHHHHm= .8bHHHHHi iHHHH",
"HHHr- 1SHHHVsi* =zHHHHHHV* sHHHH",
"HHHh:  1iii*   =MHHHHHHHs *VHHHH",
"HHHAj2      *isVHHHHHHHHi iHHHHH",
"HHHHHSsiiiisVHHHHHHHHHHV* sHHHHH",
"HHHHHHHHHHHHHHHHHHHHHHHs *VHHHHH",
"HHHHHHHHHHHHHHHHHHHHHHHi iHHHHHH",
"HHHHHHHHHHHHHHHHHHHHHHHi iHHHHHH",
"HHHHHHHHHHHHHHHHHHHHHHV* sHHHHHH",
"HHHHHHHHHHHHHHHHHHHHHHs *VHHHHHH",
"HHHHHHHHHHHHHHHHHHHHHHi iHHHHHHH",
"HHHHHHHHHHHHHHHHHHHHHHi iHHHHHHH",
"HHHHFGHHHHHHHHHHHHHHHHi iHHHHHHH",
"HHHHHHHHHHHHHHHHHHHHHHi iHHHHHHH",
"HHHHGGHHHHHHHHHHHHHHHHi iHHHHHHH",
"HHHHGGHHHHHHHHHHHHHHGGi iHHHHHHH",
"HHHHHHHHHHHHHHHHHHHHHV* sHHHHHHH",
"HHHHHHHHHHHHHHHHHHHHHs *VHHHHHHH",
"HHHHHHHHHHHHHHHHHHHHHi iHHHHHHHH",
"HHHHHHHHHHHHHHHHHHHHHi iHHHHHHHH",
"HHHHHHHHHHHHHHHHHHHHHi iHHHHHHHH",
"HHHHHHHHHHHHHHHHHHHHH6 aHHHHHHHH",
"HHHHHHHHHHHHHHHHHHHHx..xHHHHHHHH",
"HHHHHHHHHHHHHHHHHHHGa 6HHHHHHHHH",
"HHHHHHHHHHHGHHHHHHHHi iHHHHHHHHH",
"HHHHHHHHHHHHGGHHHHHHi iHHHHHHHHH",
"HHHHHHHHHHHHHHHHHHHHi iHHHHHHHHH",
"HHHHHHHHHHHHHHHHHHHV* sHHHHHHHHH",
"HHHHHHHHHHHHHHHHHHHs *VHHHHHHHHH",
"HHHHHHHHHHHHHHHHHHHi iHHHHHHHHHH",
"HHHHHHHHHHHHHHHHHHHi iHHHHHHHHHH",
"HHHHHHHHHHHHHHHHHHH6 aHHHHHHHHHH",
"HHHHHHHHHHHHHHHHHHx..xHHHHHHHHHH",
"HHHHHHHHHHHHHHHHHHa 6HHHHHHHHHHH",
"HHHHHHHHHHHHHHHHHHi iHHHHHHHHHHH",
"HHHHHHHHHHHHHHHHHHi iHHHHHHHHHHH",
"HHHHHHHHHHHHHHHHHHi iHHHHHHHHHHH",
"HHHHHHHHHHHHHHHHHHs sHHHHHHHHHHH",
"HHHHHHHHHHHHHHHHHHSdSHHHHHHHHHHH",
"HHHHHHHHHHHHHHHHHHHHHHHHHHHHHHHH",
"HHHHHHHHHHHHHHHHHHHHHHHHHHHHHHHH",
"HHHHHHHHHHHHHHHHHHHHHHHHHHHHHHHH",
"HHHHHHHHHHHHHHHHHHHHHHHHHHHHHHHH"
};
